<?xml version="1.0" encoding="utf-8"?>
<!-- Generator: Adobe Illustrator 19.0.0, SVG Export Plug-In . SVG Version: 6.00 Build 0)  -->
<svg version="1.1" id="Layer_1" xmlns="http://www.w3.org/2000/svg" xmlns:xlink="http://www.w3.org/1999/xlink" x="0px" y="0px"
	 viewBox="0 0 226.6 52.7" style="enable-background:new 0 0 226.6 52.7;" xml:space="preserve">
<style type="text/css">
	.st0{stroke:#000000;stroke-miterlimit:10;}
	.st1{fill:#0186A8;stroke:#0186A8;stroke-miterlimit:10;}
	.st2{fill:url(#XMLID_38_);stroke:url(#XMLID_39_);stroke-miterlimit:10;}
	.st3{fill:url(#XMLID_40_);stroke:url(#XMLID_41_);stroke-miterlimit:10;}
</style>
<path id="XMLID_21_" class="st0" d="M11.7,16.6h10.2c1.4,0,2.6,0.2,3.6,0.5c1.1,0.4,1.9,0.8,2.6,1.5c1,1,1.5,2.2,1.5,3.6v0.1
	c0,0.7-0.1,1.4-0.3,2c-0.2,0.6-0.5,1.1-0.9,1.5c-0.4,0.4-0.8,0.8-1.2,1.1c-0.4,0.3-0.9,0.5-1.4,0.7c0.7,0.2,1.4,0.4,2,0.8
	c0.6,0.3,1.2,0.7,1.6,1.1c0.5,0.4,0.8,0.9,1.1,1.5c0.3,0.6,0.4,1.3,0.4,2.1v0.1c0,1-0.2,1.8-0.6,2.6c-0.4,0.8-1,1.4-1.8,1.9
	c-0.8,0.5-1.7,0.9-2.8,1.2c-1.1,0.3-2.3,0.4-3.6,0.4H11.7V16.6z M27,22.6c0-1.1-0.5-2-1.4-2.7c-0.9-0.7-2.2-1-3.9-1h-7.3v7.8h7.1
	c1.6,0,3-0.3,4-1C26.5,25,27,24,27,22.6L27,22.6z M28.4,32.8c0-1.2-0.5-2.2-1.6-2.9c-1.1-0.7-2.7-1-4.8-1h-7.6v8h8
	c1.8,0,3.3-0.4,4.3-1.1S28.4,34.2,28.4,32.8L28.4,32.8z"/>
<path id="XMLID_18_" class="st0" d="M34.9,16.6h10c1.4,0,2.7,0.2,3.9,0.6c1.1,0.4,2.1,1,2.8,1.7c0.6,0.6,1,1.2,1.3,2
	c0.3,0.8,0.5,1.6,0.5,2.5v0.1c0,1-0.2,1.8-0.5,2.5c-0.3,0.7-0.8,1.4-1.3,1.9c-0.6,0.6-1.2,1-2,1.4c-0.8,0.4-1.6,0.6-2.5,0.8l7.2,9.3
	H51l-6.8-8.8h-6.7v8.8h-2.6V16.6z M44.8,28.1c0.9,0,1.7-0.1,2.4-0.3c0.7-0.2,1.4-0.5,1.9-0.9c0.5-0.4,1-0.9,1.3-1.5
	c0.3-0.6,0.5-1.2,0.5-2v-0.1c0-1.4-0.5-2.5-1.6-3.3c-1-0.8-2.5-1.2-4.4-1.2h-7.2v9.2H44.8z"/>
<path id="XMLID_16_" class="st0" d="M79.9,39.2h-3.5l-2.1-5.1H62.2l-2.1,5.1h-3.5l9.8-23h3.7l5.4,12.8h-3.2l-4.1-9.9l-5.1,12.4h13.5
	L79.9,39.2z"/>
<path id="XMLID_14_" class="st0" d="M83.2,16.6h2.4L100,34.7V16.6h2.5v22.7h-2.1L85.7,20.7v18.6h-2.5V16.6z"/>
<path id="XMLID_11_" class="st0" d="M106.6,16.6h7.7c1.7,0,3.3,0.3,4.7,0.9s2.7,1.4,3.7,2.4c1,1,1.8,2.2,2.4,3.6
	c0.6,1.4,0.9,2.9,0.9,4.5v0.1c0,1.6-0.3,3.1-0.9,4.5c-0.6,1.4-1.4,2.6-2.4,3.6c-1,1-2.3,1.8-3.7,2.4s-3,0.9-4.7,0.9h-7.7V16.6z
	 M109.1,18.9v17.9h5.2c1.4,0,2.6-0.2,3.8-0.7c1.1-0.5,2.1-1.1,2.9-1.9c0.8-0.8,1.4-1.7,1.8-2.8c0.4-1.1,0.6-2.3,0.6-3.5v-0.1
	c0-1.3-0.2-2.4-0.6-3.5c-0.4-1.1-1-2-1.8-2.8c-0.8-0.8-1.7-1.4-2.9-1.9c-1.1-0.5-2.4-0.7-3.8-0.7H109.1z"/>
<path id="XMLID_9_" class="st1" d="M134.9,39.6c-1.7,0-3.2-0.4-4.3-1.1c-1.1-0.8-2.1-1.7-2.8-2.9l1.9-1.6c0.7,1.1,1.5,1.9,2.3,2.4
	c0.8,0.6,1.8,0.8,3,0.8c1.3,0,2.4-0.5,3.2-1.4c0.9-0.9,1.3-2.3,1.3-4.1V16.6h2.6v15.2c0,1.3-0.2,2.5-0.6,3.5c-0.4,1-0.9,1.8-1.5,2.5
	C138.6,38.9,136.9,39.6,134.9,39.6z"/>
<path id="XMLID_7_" class="st1" d="M163.1,16.6h2.8l6.6,18.9l6.4-18.9h2.2l6.4,18.9l6.6-18.9h2.8l-8.3,22.8h-2.2L180,21l-6.4,18.4
	h-2.2L163.1,16.6z"/>
<path id="XMLID_5_" class="st1" d="M207,39.6c-1.8,0-3.5-0.3-5-0.9c-1.5-0.6-2.9-1.5-4.3-2.7l1.6-1.9c1.2,1.1,2.4,1.9,3.6,2.4
	s2.6,0.8,4.2,0.8c1.5,0,2.8-0.4,3.7-1.1c0.9-0.7,1.4-1.6,1.4-2.8v-0.1c0-0.5-0.1-1-0.3-1.4c-0.2-0.4-0.5-0.8-0.9-1.1
	c-0.4-0.3-1-0.7-1.8-0.9c-0.8-0.3-1.8-0.6-2.9-0.8c-1.3-0.3-2.4-0.6-3.4-1c-1-0.4-1.8-0.8-2.4-1.3c-0.6-0.5-1.1-1.1-1.4-1.8
	c-0.3-0.7-0.5-1.5-0.5-2.4v-0.1c0-0.9,0.2-1.7,0.6-2.5c0.4-0.8,0.9-1.4,1.6-2c0.7-0.6,1.5-1,2.4-1.3c0.9-0.3,1.9-0.5,3-0.5
	c1.7,0,3.1,0.2,4.4,0.7c1.2,0.5,2.5,1.2,3.6,2.1l-1.5,2c-1.1-0.9-2.1-1.5-3.2-1.9c-1.1-0.4-2.2-0.6-3.4-0.6c-1.5,0-2.7,0.4-3.5,1.1
	c-0.9,0.7-1.3,1.6-1.3,2.6v0.1c0,0.5,0.1,1,0.3,1.4c0.2,0.4,0.5,0.8,0.9,1.2c0.5,0.4,1.1,0.7,1.9,1c0.8,0.3,1.8,0.6,3.1,0.8
	c2.5,0.6,4.4,1.3,5.6,2.3c1.2,1,1.8,2.4,1.8,4.1v0.1c0,1-0.2,1.9-0.6,2.6c-0.4,0.8-0.9,1.5-1.6,2c-0.7,0.6-1.5,1-2.4,1.3
	C209.2,39.4,208.2,39.6,207,39.6z"/>
<g id="XMLID_2_">
	<linearGradient id="XMLID_38_" gradientUnits="userSpaceOnUse" x1="154.8103" y1="39.5489" x2="154.8103" y2="16.2583">
		<stop  offset="0" style="stop-color:#004254"/>
		<stop  offset="1" style="stop-color:#00A1BF"/>
	</linearGradient>
	<linearGradient id="XMLID_39_" gradientUnits="userSpaceOnUse" x1="154.8104" y1="40.0489" x2="154.8104" y2="15.2088">
		<stop  offset="0" style="stop-color:#004254"/>
		<stop  offset="1" style="stop-color:#00A1BF"/>
	</linearGradient>
	<path id="XMLID_4_" class="st2" d="M167.5,39.5c-0.7,0-0.9,0-1.7,0c-1.4,0-1.3-0.2-2.1-1.7c-2-3.8-4.1-7.5-6.1-11.3
		c-0.6-1.2-1.8-3.3-2.6-4.7c0-0.1-0.1-0.3-0.3-0.1c-1.9,3.4-4,7.7-5.9,11.1c3.7,0.5,6.9,2.9,8.2,6.7c-0.3,0-0.4,0-0.6,0
		c-0.8,0-1,0-1.8,0c-0.4,0-0.6-0.1-0.8-0.4c-1.1-1.9-3.6-3.9-5.9-3.7c-0.6,0.1-0.8,0.5-0.9,0.7c-0.4,0.6-1.2,2.5-1.5,3.1
		c-0.1,0.3-0.3,0.4-0.7,0.4c-1,0-1.4,0-2.5,0c4.2-7.7,8.5-15.6,12.6-23.3C159,23.9,163.3,31.8,167.5,39.5z"/>
	<linearGradient id="XMLID_40_" gradientUnits="userSpaceOnUse" x1="158.4294" y1="35.3726" x2="158.4294" y2="32.4162">
		<stop  offset="0" style="stop-color:#004254"/>
		<stop  offset="1" style="stop-color:#00A1BF"/>
	</linearGradient>
	<linearGradient id="XMLID_41_" gradientUnits="userSpaceOnUse" x1="158.4294" y1="35.8726" x2="158.4294" y2="31.9162">
		<stop  offset="0" style="stop-color:#004254"/>
		<stop  offset="1" style="stop-color:#00A1BF"/>
	</linearGradient>
	<circle id="XMLID_3_" class="st3" cx="158.4" cy="33.9" r="1.5"/>
</g>
</svg>
